<?xml version="1.0" encoding="UTF-8"?> <svg xmlns="http://www.w3.org/2000/svg" xmlns:xlink="http://www.w3.org/1999/xlink" width="442" height="296" viewBox="0 0 442 296"><defs><clipPath id="clip-path"><rect id="Rect치ngulo_3" data-name="Rect치ngulo 3" width="442" height="296" transform="translate(0 0.209)" fill="none"></rect></clipPath></defs><g id="Grupo_25" data-name="Grupo 25" transform="translate(-3136.478 -859.722)"><g id="Background" transform="translate(3136.478 859.513)"><g id="Grupo_7" data-name="Grupo 7" transform="translate(0 0)" clip-path="url(#clip-path)"><circle id="Elipse_1" data-name="Elipse 1" cx="59.585" cy="59.585" r="59.585" transform="translate(35.974 101.882)" fill="none" stroke="#a6d1f4" stroke-miterlimit="10" stroke-width="1"></circle><path id="Trazado_1" data-name="Trazado 1" d="M490.949,519.23c.715-15.212,1.423-30.556-1.024-45.586s-8.322-29.923-19.1-40.678c-19.521-19.473-51.274-22.239-70.876-41.629C379.2,370.816,377.8,337.9,363.2,312.635c-13.891-24.031-40.527-40.179-68.258-41.379s-55.663,12.585-71.579,35.326c-17.137,24.487-21.32,58.335-44.932,76.66-15.735,12.212-37,14.777-53.921,25.285-18.254,11.337-29.946,31.17-35.747,51.859s-6.346,42.442-6.681,63.927c53.559,3.058,107.654,6.225,161.213,9.283,63.155,3.606,126.467,7.211,189.631,3.764C454.136,536.2,475.063,533.334,490.949,519.23Z" transform="translate(-67.098 -219.432)" fill="#a6d1f4"></path><path id="Trazado_2" data-name="Trazado 2" d="M499.215,495.68c.729-15.519,1.452-31.173-1.045-46.508s-8.491-30.527-19.49-41.5c-19.915-19.866-52.31-22.689-72.309-42.471-21.165-20.935-22.593-54.519-37.491-80.293-14.171-24.517-41.346-40.991-69.638-42.216s-56.788,12.839-73.026,36.04c-17.484,24.982-21.751,59.515-45.84,78.21-16.053,12.459-37.749,15.075-55.011,25.8-18.623,11.566-30.551,31.8-36.47,52.908s-6.474,43.3-6.816,65.219c54.642,3.12,109.83,6.351,164.472,9.47,64.432,3.678,129.024,7.357,193.465,3.84C461.658,512.994,483.008,510.069,499.215,495.68Z" transform="translate(-67.098 -196.277)" fill="none" stroke="#a6d1f4" stroke-miterlimit="10" stroke-width="1"></path><path id="Trazado_3" data-name="Trazado 3" d="M505.684,478.917c.741-15.738,1.475-31.613-1.061-47.164S496,400.8,484.83,389.668c-20.224-20.146-53.122-23.009-73.431-43.07-21.493-21.231-22.943-55.288-38.072-81.425C358.937,240.31,331.34,223.6,302.61,222.362s-57.669,13.02-74.158,36.548c-17.755,25.334-22.088,60.354-46.551,79.313-16.3,12.634-38.334,15.288-55.864,26.16C107.125,376.112,95.012,396.631,89,418.037s-6.574,43.91-6.921,66.139c55.49,3.164,111.534,6.44,167.023,9.6,65.431,3.73,131.025,7.461,196.465,3.894C467.545,496.476,489.225,493.51,505.684,478.917Z" transform="translate(-67.098 -179.795)" fill="none" stroke="#a6d1f4" stroke-miterlimit="10" stroke-width="1"></path><circle id="Elipse_2" data-name="Elipse 2" cx="12.703" cy="12.703" r="12.703" transform="translate(87.584 79.683)" fill="#a6d1f4"></circle><circle id="Elipse_4" data-name="Elipse 4" cx="4.688" cy="4.688" r="4.688" transform="translate(343.005 118.792)" fill="#a6d1f4"></circle><g id="Grupo_6" data-name="Grupo 6" transform="translate(363.285 51.751)"><circle id="Elipse_5" data-name="Elipse 5" cx="25.585" cy="25.585" r="25.585" fill="#a6d1f4"></circle><path id="Trazado_4" data-name="Trazado 4" d="M2007.093,335.648h-8.842v-8.842h-12.419v8.842h-8.843v12.42h8.843v8.842h12.419v-8.842h8.842Z" transform="translate(-1966.456 -316.273)" fill="#fff"></path></g></g></g><g id="Illustration" transform="translate(3136.478 859.513)"><g id="Grupo_24" data-name="Grupo 24" transform="translate(0 0)" clip-path="url(#clip-path)"><g id="Grupo_23" data-name="Grupo 23" transform="translate(50.027 28.613)"><g id="Grupo_9" data-name="Grupo 9" transform="translate(0 91.836)"><path id="Trazado_5" data-name="Trazado 5" d="M403.8,740.186a26.163,26.163,0,0,0,.437-29.269c-2.732-4.021-6.723-7.5-7.6-12.279-1.143-6.241,1.184-12.493,3.309-18.471a15.441,15.441,0,0,0-3.682-15.852c-1.876-1.829-4.335-3.326-5.129-5.823-.7-2.218.121-4.593.37-6.907a15.832,15.832,0,0,0-6.767-14.168,20.7,20.7,0,0,0-15.728-3.055c-3.459.663-6.921,2.205-9,5.052-2.986,4.1-2.5,9.628-4.839,14.125a26.692,26.692,0,0,0-15.492,33.308c1.478,4.408,4.141,8.614,3.97,13.26-.144,3.934-2.306,7.458-3.777,11.109a33.54,33.54,0,0,0,4.167,32c13.237,4,27.827,6.456,41.6,5.26C392.362,747.894,399.844,745.646,403.8,740.186Z" transform="translate(-324.233 -633.958)" fill="#38206c"></path><path id="Trazado_6" data-name="Trazado 6" d="M300.016,1132.624s-22.682,9.18-27.878,23.557-4.993,62.368-4.993,62.368H373.453a193.166,193.166,0,0,1-7.05-38.053c-.847-8.794-1.123-17.8-4.164-26.091a37.54,37.54,0,0,0-11.459-16.651C334.117,1135.079,316.892,1132.624,300.016,1132.624Z" transform="translate(-267.143 -1038.192)" fill="#dd0467"></path><path id="Trazado_7" data-name="Trazado 7" d="M444.422,1120.98l-3.689,2.2s3.78,15.93,25.109,17.144,25.655-12.014,25.655-12.014l-4.145-3.375Z" transform="translate(-407.861 -1028.753)" fill="#f8f8f6"></path><path id="Trazado_8" data-name="Trazado 8" d="M508.844,808.328c-3.168,2.829-6.762,5.085-11.01,5.085V827.9l5.31,5.039s-7.052,10.531-23.821,9.09-19.109-13.049-19.109-13.049l11.61-5.761.926-18.359a8.042,8.042,0,0,1-6.594-2.269,7.072,7.072,0,0,1-2.074-6.709,6.134,6.134,0,0,1,5.185-4.564,5.418,5.418,0,0,1,5.6,3.812,11.878,11.878,0,0,0,.941-12,17.915,17.915,0,0,0-9.457-8.188,18.223,18.223,0,0,1,5.113-9.518,17.865,17.865,0,0,1,9.631-4.655c6.571,6.652,15.212,10.841,23.232,15.651,1.363.818,2.867,1.886,2.984,3.471a7.331,7.331,0,0,1-.905,3.066,8.322,8.322,0,0,0,.309,6.62c1.388,2.789,4.916,4.344,5.88,7.306C513.909,800.924,512.012,805.5,508.844,808.328Z" transform="translate(-423.653 -736.756)" fill="#fec3bd"></path><g id="Grupo_8" data-name="Grupo 8" transform="translate(2.98 32.969)"><path id="Trazado_9" data-name="Trazado 9" d="M286.9,1423.262a96.948,96.948,0,0,1-3.45-25.774q0-3.666.285-7.324c.028-.364-.539-.362-.567,0a97.744,97.744,0,0,0,1.508,26.067q.7,3.621,1.677,7.182A.284.284,0,0,0,286.9,1423.262Z" transform="translate(-282.882 -1279.71)" fill="#38206c"></path><path id="Trazado_10" data-name="Trazado 10" d="M433.225,1416.4q-.763-6.625-1.247-13.278-.479-6.6-.679-13.225-.114-3.755-.137-7.512a.284.284,0,0,0-.567,0q.043,6.669.367,13.331.323,6.614.924,13.21.341,3.741.771,7.474C432.7,1416.761,433.266,1416.765,433.225,1416.4Z" transform="translate(-402.623 -1273.406)" fill="#38206c"></path><path id="Trazado_11" data-name="Trazado 11" d="M699.985,1339.221a25.638,25.638,0,0,0-2.939-7.58q-.262-.44-.545-.867c-.2-.3-.691-.02-.49.286a24.383,24.383,0,0,1,3.217,7.433,35.7,35.7,0,0,1,1.023,8.118,59.529,59.529,0,0,1-.529,8.576c-.4,3.149-.949,6.276-1.445,9.41s-.941,6.28-1.127,9.449q-.035.6-.057,1.191c-.014.365.553.364.567,0a83.5,83.5,0,0,1,1.015-9.536c.487-3.162,1.05-6.312,1.479-9.482a64.925,64.925,0,0,0,.672-8.769A38.119,38.119,0,0,0,699.985,1339.221Z" transform="translate(-617.74 -1231.683)" fill="#38206c"></path><path id="Trazado_12" data-name="Trazado 12" d="M511.145,951.059a8.944,8.944,0,0,0-3.063-5.112c-.28-.23-.683.169-.4.4a8.456,8.456,0,0,1,2.917,4.862C510.67,951.568,511.216,951.416,511.145,951.059Z" transform="translate(-465.033 -919.779)" fill="#38206c"></path><path id="Trazado_13" data-name="Trazado 13" d="M617.957,930.407a9.043,9.043,0,0,1-8.145.836c-.34-.133-.488.416-.151.547a9.579,9.579,0,0,0,8.582-.893C618.547,930.7,618.264,930.207,617.957,930.407Z" transform="translate(-547.625 -907.2)" fill="#38206c"></path><path id="Trazado_14" data-name="Trazado 14" d="M561.413,817.186a7.29,7.29,0,0,1,5.229-9.129,2.314,2.314,0,0,1,.114,2.586,15.054,15.054,0,0,1-1.63,2.214,8.112,8.112,0,0,0-1.3,2.646,8.07,8.07,0,0,1-.383,1.239,1.634,1.634,0,0,1-.89.9A.925.925,0,0,1,561.413,817.186Z" transform="translate(-508.434 -808.057)" fill="#38206c"></path><ellipse id="Elipse_8" data-name="Elipse 8" cx="1.012" cy="1.8" rx="1.012" ry="1.8" transform="translate(59.981 7.162) rotate(-35.179)" fill="#38206c"></ellipse></g><path id="Trazado_15" data-name="Trazado 15" d="M582.594,1031.829v8.387c-12.578-3.528-17.82-10.006-17.82-10.006A111.369,111.369,0,0,0,582.594,1031.829Z" transform="translate(-508.412 -955.172)" fill="#ff8a80"></path></g><g id="Grupo_18" data-name="Grupo 18" transform="translate(106.633 29.961)"><path id="Trazado_16" data-name="Trazado 16" d="M1131.754,966.83l10.739,8.849a118.624,118.624,0,0,1-5.713,13.692,31.937,31.937,0,0,1-11.056-12.365C1127.8,973.53,1129.68,970.306,1131.754,966.83Z" transform="translate(-1069.769 -841.92)" fill="#fec3bd"></path><path id="Trazado_17" data-name="Trazado 17" d="M1236.62,836.325c-4.433,8.58-10.368,16.554-18.217,22.181s-17.756,8.735-27.3,7.267c-7.1-1.091-13.647-4.613-19.243-9.112s-10.647-10.306-15.251-15.815a30.563,30.563,0,0,0,5.544-14.961,13.075,13.075,0,0,1,.7-4.051c.544-1.265,1.383-2.425,2.565-1.718a93.179,93.179,0,0,0,28.751,11.676,186.147,186.147,0,0,1,28.948-47.036c2.362-2.8,5.205-6.02,8.786-5.251C1235.974,797.818,1245.232,819.66,1236.62,836.325Z" transform="translate(-1094.804 -689.976)" fill="#38206c"></path><path id="Trazado_18" data-name="Trazado 18" d="M967.633,889.1a.979.979,0,0,0,.044.85.646.646,0,0,0,.61.2,1.763,1.763,0,0,0,.612-.266,19.942,19.942,0,0,0,7.3-8.509,2.562,2.562,0,0,0,.353-1.312,1.7,1.7,0,0,0-1.009-1.311,3.367,3.367,0,0,0-1.7-.233A5.615,5.615,0,0,0,970.381,880a4.256,4.256,0,0,0-1.309,2.956,16.625,16.625,0,0,1-.844,3.843Z" transform="translate(-941.555 -770.318)" fill="#38206c"></path><path id="Trazado_19" data-name="Trazado 19" d="M947.318,859.506a17.627,17.627,0,0,1-9.817,9.842,3.959,3.959,0,0,1-2.8.29,27.125,27.125,0,0,0,3.753-10.027c.192-1.2,1.531-2.01,2.521-2.708a4.04,4.04,0,0,1,3.43-.726C945.671,856.57,946.625,858.375,947.318,859.506Z" transform="translate(-914.919 -752.111)" fill="#38206c"></path><path id="Trazado_20" data-name="Trazado 20" d="M886.708,885.727,836.719,882.5a3.33,3.33,0,1,0-.165,2.56l49.989,3.223a1.282,1.282,0,0,0,1.362-1.2h0A1.283,1.283,0,0,0,886.708,885.727Z" transform="translate(-830.24 -771.741)" fill="#38206c"></path><path id="Trazado_21" data-name="Trazado 21" d="M954.692,852.924c-1.077,3.5-2.275,7.053-4.572,9.9a4.488,4.488,0,0,1-2.367,1.742,1.912,1.912,0,0,1-2.325-1.32,19.88,19.88,0,0,1-15.56-15.864,21.5,21.5,0,0,1-8.328-5.078,5.084,5.084,0,0,1-1.559-2.9,2.509,2.509,0,0,1,1.569-2.67,7.516,7.516,0,0,1-2.559-2.815A15.855,15.855,0,0,1,906,839.789c2.359-1.554,4.2-4.262,5.619-6.707s3.037-4.967,5.574-6.21a9.172,9.172,0,0,1,6.307-.481,15.108,15.108,0,0,1,5.644,3.041c4.518,3.693,7.432,9,11.677,13,3.045,2.871,6.817,5.125,8.927,8.739A6.82,6.82,0,0,1,954.692,852.924Z" transform="translate(-891.653 -727.8)" fill="#f8f8f6"></path><path id="Trazado_22" data-name="Trazado 22" d="M1553.086,879.079c.254-7.554-.918-18.761-2.03-27.337-.915-7.06-1.786-12.337-1.786-12.337l0,0c-5.963,2.611-15.994,4.229-15.994,4.229l-7.83-20.264c7.109-3.238,15.182-10.247,15.182-10.247a316.132,316.132,0,0,1-16.575-46.9c-7.312-27.135.549-39.521.549-39.521l30.219-14.932c78.065,6.834,89.6,167.309,89.6,167.309Z" transform="translate(-1390.139 -635.16)" fill="#0778b9"></path><path id="Trazado_23" data-name="Trazado 23" d="M1726.3,1153.52s-11.684,39.853-53.947,56.318c-.915-7.06-1.786-12.337-1.786-12.337S1706.321,1185.963,1726.3,1153.52Z" transform="translate(-1511.433 -993.257)" fill="#38206c"></path><path id="Trazado_24" data-name="Trazado 24" d="M1499.99,1308.92a69.814,69.814,0,0,0,9.706-5.074,90.458,90.458,0,0,1,8.387,15.8,63.639,63.639,0,0,0-12.888.33A33.005,33.005,0,0,1,1499.99,1308.92Z" transform="translate(-1373.161 -1115.116)" fill="#fec3bd"></path><g id="Grupo_10" data-name="Grupo 10" transform="translate(85.802 180.675)"><path id="Trazado_25" data-name="Trazado 25" d="M1293.671,1261.31l-10.336,4.326,1.381,3.3,2.387-1,17,40.616a3.015,3.015,0,0,0,3.945,1.617h0a3.015,3.015,0,0,0,1.617-3.946l-17-40.616,2.387-1Z" transform="translate(-1283.335 -1261.31)" fill="#38206c"></path><path id="Trazado_26" data-name="Trazado 26" d="M1328.819,1329.326h0a1.687,1.687,0,0,1-2.208-.905l-17.142-40.948,3.113-1.3,17.141,40.948A1.687,1.687,0,0,1,1328.819,1329.326Z" transform="translate(-1304.521 -1281.462)" fill="#f8f8f6"></path></g><path id="Trazado_27" data-name="Trazado 27" d="M1368.243,382.592c5.143-12.042,9.613-24.182,9.137-37.267-.2-5.459-1.66-11.3-5.893-14.756-1.72-1.4-3.883-2.41-4.98-4.34-.874-1.538-.907-3.394-1.326-5.113-1.3-5.324-6.359-9.068-11.671-10.414s-10.78-.561-16.225.056a21.139,21.139,0,0,0-22.673-.483,22.673,22.673,0,0,0-10.34,20.384,16.3,16.3,0,0,0,3.348,9.326,10.312,10.312,0,0,0,8.831,3.918c10.682-1.2,19.088,10.3,26.663,17.927S1358.563,377.92,1368.243,382.592Z" transform="translate(-1214.469 -307.215)" fill="#38206c"></path><path id="Trazado_28" data-name="Trazado 28" d="M1411.967,506.165a36.655,36.655,0,0,1-22.434,9.586c-.284-1.15-.595-2.306-.939-3.456-.481-1.608-1.028-3.2-1.663-4.74-.2-.5-.417-.987-.638-1.47a89.621,89.621,0,0,0-11.582-3.914,45.179,45.179,0,0,1-10.991-4.382c-3.384-2.051-6.645-4.708-8.035-8.412a15.228,15.228,0,0,0,1.564-10.3c-.54-2.64-1.774-5.088-2.439-7.7-1.191-4.674-.506-9.6.309-14.354,3.681,3.729,9.338,5.035,14.576,5.187s10.41-1.036,15.505-2.244a26.2,26.2,0,0,0,1.557,10.059c1.25,3.157,3.865,5.965,7.207,6.573-.578-.771.076-1.96.742-2.657a4.116,4.116,0,0,1,2.617-1.081,6.986,6.986,0,0,1,5.327,1.683,5.592,5.592,0,0,1,1.739,5.208,6.439,6.439,0,0,1-2.142,3.35,14.936,14.936,0,0,1-3.437,2.108,13.7,13.7,0,0,0,11.073,15.877C1410.564,502.795,1411.285,504.463,1411.967,506.165Z" transform="translate(-1254.953 -428.66)" fill="#fec3bd"></path><path id="Trazado_29" data-name="Trazado 29" d="M1374.855,601.53a41.272,41.272,0,0,1,10.05,23.161,25.072,25.072,0,0,1-7.665,3.818c-2.755,1-5.667,2.011-8.553,1.506a11.323,11.323,0,0,1-5.377-2.77,33.773,33.773,0,0,1-4.089-4.548A53.459,53.459,0,0,1,1352.1,612.1a6.77,6.77,0,0,1-.79-4.381c.369-1.468,1.976-2.7,3.387-2.155C1361.073,608.038,1368.541,604.166,1374.855,601.53Z" transform="translate(-1252.534 -545.796)" fill="#f8f8f6"></path><path id="Trazado_30" data-name="Trazado 30" d="M1539.335,601.338q-2.18,4.466-4.426,8.9-2.236,4.412-4.538,8.79-1.308,2.487-2.637,4.963c-.173.322.317.608.489.286q2.351-4.379,4.635-8.792,2.274-4.393,4.481-8.82,1.254-2.515,2.486-5.04C1539.984,601.3,1539.5,601.01,1539.335,601.338Z" transform="translate(-1395.621 -545.523)" fill="#38206c"></path><path id="Trazado_31" data-name="Trazado 31" d="M1490.932,559.053a105.289,105.289,0,0,0-13,5.881q-1.8.967-3.559,2a.284.284,0,0,0,.286.49,104.186,104.186,0,0,1,12.709-6.359q1.844-.769,3.716-1.467C1491.422,559.473,1491.275,558.925,1490.932,559.053Z" transform="translate(-1352.283 -511.347)" fill="#38206c"></path><g id="Grupo_11" data-name="Grupo 11" transform="translate(101.917 43.589)"><path id="Trazado_32" data-name="Trazado 32" d="M1405.632,541.39c-7.362-2.07-21.633-2.035-23.913-2.016l-.078-.353a2.066,2.066,0,0,0-2.462-1.574l-7.391,1.626a2.066,2.066,0,0,0-1.574,2.462l.371,1.687a3.89,3.89,0,0,0-2.033.738.379.379,0,0,0,.526.545,3.431,3.431,0,0,1,1.671-.54l.829,3.767a2.068,2.068,0,0,0,2.014,1.623,2.089,2.089,0,0,0,.448-.049l7.391-1.626a2.068,2.068,0,0,0,1.574-2.462l-1.119-5.087c2.692-.019,16.427-.012,23.541,1.989a.379.379,0,0,0,.205-.729Zm-24.364,5.549-7.391,1.626a1.309,1.309,0,0,1-1.559-1l-1.363-6.2a1.309,1.309,0,0,1,1-1.559l7.391-1.626a1.323,1.323,0,0,1,.284-.031,1.31,1.31,0,0,1,1.275,1.028l1.363,6.2A1.31,1.31,0,0,1,1381.268,546.94Z" transform="translate(-1368.437 -537.398)" fill="#38206c"></path></g><path id="Trazado_33" data-name="Trazado 33" d="M1539.432,674.72a28.554,28.554,0,0,1-10.6,14.042c-.481-1.608-1.028-3.2-1.663-4.74C1527.174,684.022,1535.495,677.96,1539.432,674.72Z" transform="translate(-1395.197 -605.126)" fill="#ff8a80"></path><path id="Trazado_34" data-name="Trazado 34" d="M1563.268,697.145a29.116,29.116,0,0,1-6.517-3.416,55.129,55.129,0,0,1-25.391,11.253,66.67,66.67,0,0,0,1.689,7.094C1533.064,711.93,1552.9,708.669,1563.268,697.145Z" transform="translate(-1398.589 -620.535)" fill="#f8f8f6"></path><path id="Trazado_35" data-name="Trazado 35" d="M1350.591,1326.618a55.162,55.162,0,0,1-10.3,1.884c-3.732.2-7.463-.356-11.2-.374s-7.647.572-10.664,2.778c-.868,3.771-1.416,7.547-2.284,11.318a1.513,1.513,0,0,0-.039.781,1.007,1.007,0,0,0,1.1.6,2.453,2.453,0,0,0,1.192-.609c2.295-1.859,3.614-4.633,4.859-7.311a52.912,52.912,0,0,1-3.43,11.286,2.632,2.632,0,0,0-.257,2.4,1.708,1.708,0,0,0,1.521.693,5.033,5.033,0,0,0,1.679-.464c-.045.5-.094.892-.139,1.391a2.088,2.088,0,0,0,2.507-.272,1.843,1.843,0,0,0,.057,2.1,1.419,1.419,0,0,0,1.247.511,3.659,3.659,0,0,0,1.332-.425,19.162,19.162,0,0,0,8.394-7.957,12.5,12.5,0,0,0,7.349.538,11.847,11.847,0,0,0,5.976-3.963c2.238-.6,4.514-1.378,6.752-1.975a2.566,2.566,0,0,0,1.45-.752c.6-.783.129-1.9-.354-2.765l-4.667-8.312a3.517,3.517,0,0,0-.824-1.1C1351.486,1326.346,1351.039,1326.506,1350.591,1326.618Z" transform="translate(-1224.069 -1133.456)" fill="#f8f8f6"></path><g id="Grupo_12" data-name="Grupo 12" transform="translate(116.389 202.301)"><path id="Trazado_36" data-name="Trazado 36" d="M1445.327,1385.868l-.19,0a.285.285,0,0,1-.28-.289.282.282,0,0,1,.289-.279,9.344,9.344,0,0,0,2.693-.325,11.564,11.564,0,0,0,5.832-3.867.284.284,0,0,1,.149-.1c1.114-.3,2.259-.647,3.366-.985s2.262-.69,3.386-.99a2.314,2.314,0,0,0,1.3-.65c.394-.514.275-1.293-.377-2.453a.284.284,0,0,1,.5-.278c.489.87,1.055,2.136.332,3.077a2.831,2.831,0,0,1-1.6.853c-1.114.3-2.259.647-3.366.985-1.082.33-2.2.671-3.3.966a12.142,12.142,0,0,1-6.062,3.986A9.8,9.8,0,0,1,1445.327,1385.868Z" transform="translate(-1444.857 -1375.508)" fill="#38206c"></path></g><g id="Grupo_13" data-name="Grupo 13" transform="translate(91.716 201.811)"><path id="Trazado_37" data-name="Trazado 37" d="M1325.113,1391.28a1.668,1.668,0,0,1-1.366-.633,2.053,2.053,0,0,1-.382-1.58,2.358,2.358,0,0,1-2.1-.178.284.284,0,0,1-.131-.265c.022-.25.046-.474.07-.7.008-.077.017-.155.025-.234a4.267,4.267,0,0,1-1.341.313,1.973,1.973,0,0,1-1.772-.827c-.562-.9-.042-2.052.238-2.672a48.363,48.363,0,0,0,2.893-8.855,15.637,15.637,0,0,1-3.885,5.217,2.722,2.722,0,0,1-1.336.671,1.283,1.283,0,0,1-1.4-.8,1.754,1.754,0,0,1,.034-.93c.432-1.879.791-3.793,1.138-5.644l.191-1.018a.284.284,0,1,1,.558.105l-.191,1.017c-.348,1.857-.709,3.777-1.143,5.666a1.311,1.311,0,0,0-.045.633.734.734,0,0,0,.79.4,2.228,2.228,0,0,0,1.049-.548c2.29-1.855,3.613-4.7,4.78-7.21a.284.284,0,0,1,.536.177,53.884,53.884,0,0,1-3.449,11.346c-.327.725-.644,1.548-.274,2.137a1.422,1.422,0,0,0,1.27.561,4.816,4.816,0,0,0,1.583-.443.284.284,0,0,1,.39.288c-.023.253-.047.478-.07.7-.017.165-.035.329-.052.5a1.81,1.81,0,0,0,2.008-.317.284.284,0,0,1,.446.344,1.577,1.577,0,0,0,.042,1.8,1.146,1.146,0,0,0,1,.393,3.451,3.451,0,0,0,1.226-.4,18.889,18.889,0,0,0,8.269-7.838.284.284,0,1,1,.5.274,19.461,19.461,0,0,1-8.52,8.076,3.935,3.935,0,0,1-1.437.453C1325.2,1391.279,1325.156,1391.28,1325.113,1391.28Z" transform="translate(-1314.568 -1372.921)" fill="#38206c"></path></g><g id="Grupo_14" data-name="Grupo 14" transform="translate(95.552 193.229)"><path id="Trazado_38" data-name="Trazado 38" d="M1335.109,1331.187a.284.284,0,0,1-.133-.535,19.351,19.351,0,0,1,9.152-1.892h.171c1.56.008,3.14.111,4.668.21a55.113,55.113,0,0,0,6.515.165,48.647,48.647,0,0,0,8.83-1.526.284.284,0,0,1,.135.552,49.142,49.142,0,0,1-8.934,1.541,55.7,55.7,0,0,1-6.583-.165c-1.52-.1-3.092-.2-4.635-.208a18.944,18.944,0,0,0-9.055,1.825A.282.282,0,0,1,1335.109,1331.187Z" transform="translate(-1334.825 -1327.601)" fill="#38206c"></path></g><g id="Grupo_17" data-name="Grupo 17" transform="translate(28.41 40.395)"><path id="Trazado_39" data-name="Trazado 39" d="M1598.75,943.527q-.142.983-.305,1.96a91.474,91.474,0,0,1-4.052,15.574,95.682,95.682,0,0,1-6.671,14.674,96.928,96.928,0,0,1-9,13.32q-1.622,2.017-3.352,3.946c-.14.157-.282.314-.424.47a93.731,93.731,0,0,1-7.33,7.234,91.5,91.5,0,0,1-12.962,9.575.284.284,0,0,1-.286-.491q.846-.517,1.681-1.049a90.956,90.956,0,0,0,12.674-9.8q3.136-2.894,6-6.067.216-.236.426-.473,2.273-2.545,4.355-5.247a96.405,96.405,0,0,0,8.7-13.491,94.219,94.219,0,0,0,6.3-14.676,90.917,90.917,0,0,0,3.7-15.61C1598.255,943.016,1598.8,943.171,1598.75,943.527Z" transform="translate(-1445.539 -863.137)" fill="#38206c"></path><path id="Trazado_40" data-name="Trazado 40" d="M1667.239,1129.462q-.545.957-1.11,1.9a105.472,105.472,0,0,1-10.485,14.543,109.424,109.424,0,0,1-12.782,12.635,111.385,111.385,0,0,1-14.583,10.355q-4.693,2.792-9.645,5.109c-.174.081-.347.163-.521.24q-2.908,1.344-5.893,2.513a105.015,105.015,0,0,1-17.282,5.119c-.356.074-.507-.474-.15-.547q1.08-.219,2.153-.462a105.392,105.392,0,0,0,16.964-5.4q2.039-.844,4.045-1.769c.172-.079.345-.161.517-.242a110.1,110.1,0,0,0,38.122-29.555,104.768,104.768,0,0,0,10.162-14.731A.283.283,0,0,1,1667.239,1129.462Z" transform="translate(-1478.251 -1013.806)" fill="#38206c"></path><path id="Trazado_41" data-name="Trazado 41" d="M1573.38,564.786a9.2,9.2,0,0,0-4.727,4.015.284.284,0,0,0,.49.286,8.588,8.588,0,0,1,4.389-3.755C1573.868,565.206,1573.722,564.657,1573.38,564.786Z" transform="translate(-1457.198 -556.39)" fill="#38206c"></path><g id="Grupo_15" data-name="Grupo 15" transform="translate(80.362 7.604)"><ellipse id="Elipse_9" data-name="Elipse 9" cx="1.012" cy="2.041" rx="1.012" ry="2.041" transform="translate(0 0.505) rotate(-14.437)" fill="#38206c"></ellipse></g><g id="Grupo_16" data-name="Grupo 16" transform="translate(78.615)"><path id="Trazado_42" data-name="Trazado 42" d="M1396.669,520.576a1.576,1.576,0,0,0-1.184.85.967.967,0,0,0,.474,1.268,2.017,2.017,0,0,0,.813.021c1.925-.135,3.59,1.345,5.491,1.675a1.229,1.229,0,0,0,.982-.143,1.01,1.01,0,0,0,.239-1.076,2.223,2.223,0,0,0-.954-1.182,5.541,5.541,0,0,0-1.424-.6c-.8-.242-1.608-.409-2.423-.588A4.8,4.8,0,0,0,1396.669,520.576Z" transform="translate(-1395.408 -520.532)" fill="#38206c"></path></g><path id="Trazado_43" data-name="Trazado 43" d="M1587.646,860.129l.222.6c-.14.157-.282.314-.424.47-.074-.2-.148-.4-.224-.6-2.288-6.17-4.573-12.339-6.7-18.568a228.256,228.256,0,0,1-8.471-30.644,120.273,120.273,0,0,1-2.149-31.119c.026-.364.593-.364.566,0q-.139,1.991-.207,3.986a126.9,126.9,0,0,0,3.233,31.323,260.48,260.48,0,0,0,9.042,30.532C1584.19,850.8,1585.915,855.467,1587.646,860.129Z" transform="translate(-1458.038 -730.865)" fill="#38206c"></path><path id="Trazado_44" data-name="Trazado 44" d="M1726,1410.076a.283.283,0,0,1-.566,0q.043-1.982.013-3.964a137.556,137.556,0,0,0-4.35-30.992c-.892-3.594-1.886-7.162-2.958-10.707-.053-.182-.108-.362-.163-.542.172-.08.345-.161.517-.242.057.182.112.362.167.544,1.505,4.98,2.861,10,3.992,15.081A129.8,129.8,0,0,1,1726,1410.076Z" transform="translate(-1578.275 -1203.974)" fill="#38206c"></path><path id="Trazado_45" data-name="Trazado 45" d="M991.453,887.257a19.188,19.188,0,0,1-4.812-2.654c-1.366-1.033-2.778-2.7-4.69-2.352a2.072,2.072,0,0,0-1.684,1.6c-.059.357.488.51.547.151a1.543,1.543,0,0,1,1.412-1.223,3.436,3.436,0,0,1,2.3.834c.7.516,1.327,1.113,2.026,1.627a19.35,19.35,0,0,0,2.106,1.348A20.012,20.012,0,0,0,991.3,887.8C991.644,887.932,991.792,887.385,991.453,887.257Z" transform="translate(-980.263 -813.715)" fill="#38206c"></path></g></g><path id="Trazado_46" data-name="Trazado 46" d="M649.186,151a41.413,41.413,0,0,1,27.373,72.492l3.378,12.636-12.178-6.688A41.418,41.418,0,1,1,649.186,151Z" transform="translate(-543.267 -150.621)" fill="#fff"></path><g id="Grupo_19" data-name="Grupo 19" transform="translate(124.113 16.24)"><path id="Trazado_47" data-name="Trazado 47" d="M935.1,304.4a.377.377,0,0,1-.182-.047l-12.178-6.688a.379.379,0,1,1,.365-.664l11.4,6.261-3.149-11.779a.379.379,0,0,1,.115-.382,41.066,41.066,0,0,0,13.914-30.792,40.656,40.656,0,0,0-8.449-24.945.379.379,0,1,1,.6-.461,41.407,41.407,0,0,1,8.605,25.405,41.825,41.825,0,0,1-13.995,31.2l3.317,12.41a.379.379,0,0,1-.366.476Z" transform="translate(-922.547 -234.759)" fill="#38206c"></path></g><g id="Grupo_20" data-name="Grupo 20" transform="translate(64.125)"><path id="Trazado_48" data-name="Trazado 48" d="M634.677,230.543a.375.375,0,0,1-.118-.019A41.8,41.8,0,0,1,647.565,149c1.223,0,2.459.054,3.673.159a.379.379,0,0,1-.066.755c-1.192-.1-2.405-.156-3.607-.156A41.043,41.043,0,0,0,634.8,229.8a.379.379,0,0,1-.118.739Z" transform="translate(-605.771 -149)" fill="#38206c"></path></g><g id="Grupo_21" data-name="Grupo 21" transform="translate(100.011 82.463)"><path id="Trazado_49" data-name="Trazado 49" d="M801.183,585.59a42.319,42.319,0,0,1-5.579-.369.379.379,0,1,1,.1-.751,41.742,41.742,0,0,0,10.957,0,.379.379,0,0,1,.1.751A42.252,42.252,0,0,1,801.183,585.59Z" transform="translate(-795.275 -584.466)" fill="#38206c"></path></g><path id="Trazado_50" data-name="Trazado 50" d="M743.432,309.173V276.346H692.809v32.826h23.658v6.03H710.71v3.352h14.821V315.2h-5.757v-6.03Z" transform="translate(-612.201 -252.231)" fill="#38206c"></path><rect id="Rect치ngulo_4" data-name="Rect치ngulo 4" width="46.371" height="28.821" transform="translate(82.734 25.96)" fill="#fff"></rect><g id="Grupo_22" data-name="Grupo 22" transform="translate(100.344 29.627)"><path id="Trazado_51" data-name="Trazado 51" d="M808.181,305.727l-11.114-.273-.037,1.509,2.566.063-.456,19.638c-.017.7,1.308,1.3,2.959,1.345h0c1.652.04,3-.5,3.022-1.2l.456-19.638,2.566.063Z" transform="translate(-797.03 -305.454)" fill="#dd0467"></path><path id="Trazado_52" data-name="Trazado 52" d="M816.871,333.147h0a1.674,1.674,0,0,1-1.633-1.715l.436-17.758,3.347.082-.436,17.758A1.674,1.674,0,0,1,816.871,333.147Z" transform="translate(-811.789 -312.117)" fill="#dd0467"></path></g></g></g></g></g></svg> 